<svg width="256" height="234" viewBox="0 0 256 234" fill="none" xmlns="http://www.w3.org/2000/svg">
<path d="M178 31C157 31 138.74 40.47 128 56.34C117.26 40.47 99 31 78 31C62.0927 31.0185 46.8422 37.3459 35.5941 48.5941C24.3459 59.8422 18.0185 75.0927 18 91C18 120.2 36.2 150.59 72.1 181.31C88.5505 195.328 106.32 207.719 125.16 218.31C126.033 218.779 127.009 219.025 128 219.025C128.991 219.025 129.967 218.779 130.84 218.31C149.68 207.719 167.449 195.328 183.9 181.31C219.8 150.59 238 120.2 238 91C237.981 75.0927 231.654 59.8422 220.406 48.5941C209.158 37.3459 193.907 31.0185 178 31ZM128 206.11C111.59 196.64 30 146.72 30 91C30.0132 78.2737 35.0746 66.0724 44.0735 57.0735C53.0724 48.0746 65.2737 43.0132 78 43C98.28 43 115.31 53.83 122.45 71.27C122.902 72.3705 123.671 73.3117 124.659 73.9741C125.647 74.6365 126.81 74.9902 128 74.9902C129.19 74.9902 130.353 74.6365 131.341 73.9741C132.329 73.3117 133.098 72.3705 133.55 71.27C140.69 53.83 157.72 43 178 43C190.726 43.0132 202.928 48.0746 211.927 57.0735C220.925 66.0724 225.987 78.2737 226 91C226 146.72 144.41 196.64 128 206.11Z" fill="white"/>
<ellipse cx="128.5" cy="108" rx="6.5" ry="7" fill="white"/>
</svg>
